<?xml version="1.0" encoding="UTF-8"?>
<svg viewBox="0 0 196 61" fill="none" xmlns="http://www.w3.org/2000/svg">
  <path d="M115.979 7.303c0 3.94 3.272 7.207 7.307 7.207 3.94 0 7.207-3.172 7.207-7.207S127.326 0 123.286 0c-4.039 0-7.307 3.364-7.307 7.303ZM181.486 7.303c0 3.94 3.272 7.207 7.307 7.207 3.939 0 7.207-3.172 7.207-7.207S192.832 0 188.793 0s-7.307 3.364-7.307 7.303ZM129.522 19.585h-12.567v40.158h12.567V19.585ZM175.607 1.776h-35.579v57.967h12.566V37.847h19.362V26.888h-19.362V12.734h23.013V1.776ZM195.032 19.585h-12.566v40.158h12.566V19.585ZM43.818 26.888v-7.315h7.299v7.303h7.299v2.312c0 2.675-.228 5.843-.752 8.335-.292 1.391-.736 2.775-1.256 4.103a29.372 29.372 0 0 1-1.816 3.824 28.601 28.601 0 0 1-3.055 4.355l-.138.163-.005.006-.003.003v.001l-.002.001c-.285.337-.566.67-.88.994-.356.384-.728.744-1.104 1.104-4.671 4.499-10.763 7.306-17.126 7.955-.764.08-2.303.16-3.071.16a43.802 43.802 0 0 1-3.072-.16c-6.367-.648-12.454-3.456-17.125-7.955l-.007-.007c-.374-.362-.743-.72-1.097-1.097-.33-.345-.631-.7-.935-1.058l-.093-.11a28.408 28.408 0 0 1-4.871-8.179c-.52-1.328-.964-2.712-1.256-4.103C.228 35.03 0 31.859 0 29.188V1.776h14.598v25.112s0 1.924.024 2.556c.032.868.064 1.712.152 2.555.24 2.256.74 4.396 1.768 6.204.296.523.6 1.031.96 1.511 2.195 2.928 5.539 5.128 9.706 5.74.496.072 1.5.136 2 .136.504 0 1.504-.065 2-.137 4.167-.611 7.51-2.811 9.706-5.739.364-.484.664-.987.96-1.511 1.028-1.812 1.528-3.948 1.768-6.204.087-.8.117-1.606.147-2.425v-.003l.005-.127c.024-.632.024-2.556.024-2.556Z" fill="#B7BCC2"/>
  <path d="M51.117 12.27h7.299v7.303h-7.3V12.27ZM51.117 12.27h-5.475V6.795h5.475v5.475ZM52.94 1.32h3.652V4.97H52.94V1.32ZM106.449 59.743H93.967V36.135s0-.828-.012-1.1a14.241 14.241 0 0 0-.064-1.1c-.104-.972-.316-1.888-.76-2.667a6.108 6.108 0 0 0-.412-.648 6.31 6.31 0 0 0-4.172-2.468 7.76 7.76 0 0 0-.86-.06c-.215 0-.647.028-.86.06a6.31 6.31 0 0 0-4.17 2.468 5.74 5.74 0 0 0-.413.648c-.444.78-.656 1.7-.76 2.667-.04.364-.052.728-.064 1.1-.012.272-.012 1.1-.012 1.1V59.7H68.926V19.54h12.026v3.652s4.284-5.332 12.827-4.956c7.679.34 12.67 6.232 12.67 14.238v27.268Z" fill="#B7BCC2"/>
</svg>
