<svg xmlns="http://www.w3.org/2000/svg" xmlns:xlink="http://www.w3.org/1999/xlink" xml:space="preserve" viewBox="0 0 512 512"><defs><path id="a" d="M123.8 2.6C50.7 2.6 2.6 49.8 2.6 123.8v264.5c0 74 48.2 121.2 121.2 121.2h264.5c73 0 121.2-47.2 121.2-121.2V123.8c0-74-48.2-121.2-121.2-121.2z"/></defs><clipPath id="b"><use xlink:href="#a" style="overflow:visible"/></clipPath><path d="M-37-37.1h586.1V549H-37z" style="clip-path:url(#b);fill:#fff"/><defs><path id="c" d="M247.2 282.9c0-12.8 10.7-23.1 23.8-23.1s23.8 10.4 23.8 23.1S284 306 270.9 306s-23.7-10.3-23.7-23.1m-13.4 0c0 19.9 16.7 36.1 37.2 36.1 8.7 0 17.1-3 23.8-8.4v5.5h13.4v-33.3c0-19.9-16.7-36.1-37.2-36.1-20.6.1-37.2 16.3-37.2 36.2"/></defs><clipPath id="d"><use xlink:href="#c" style="overflow:visible"/></clipPath><path d="M194.2 207.2h153.5v151.5H194.2z" style="clip-path:url(#d);fill:#49515f"/><defs><path id="e" d="M332.6 282.9c0-12.8 10.7-23.1 23.8-23.1s23.8 10.4 23.8 23.1-10.8 23.1-23.9 23.1-23.7-10.3-23.7-23.1m47.5-59.1v31.4c-6.7-5.5-15.1-8.4-23.8-8.4-20.5 0-37.2 16.2-37.2 36.1s16.7 36.1 37.2 36.1c9 0 17.3-3.2 23.8-8.4v5.5h13.4v-92.4z"/></defs><clipPath id="f"><use xlink:href="#e" style="overflow:visible"/></clipPath><path d="M279.6 184.2h153.5v174.5H279.6z" style="clip-path:url(#f);fill:#49515f"/><defs><path id="g" d="M417.6 282.9c0-12.8 10.7-23.1 23.8-23.1s23.8 10.4 23.8 23.1-10.7 23.1-23.8 23.1-23.8-10.3-23.8-23.1m-13.3 0c0 19.9 16.7 36.1 37.1 36.1 8.7 0 17.1-3 23.8-8.4v5.5h13.4v-33.3c0-19.9-16.7-36.1-37.2-36.1-20.5.1-37.1 16.3-37.1 36.2"/></defs><clipPath id="h"><use xlink:href="#g" style="overflow:visible"/></clipPath><path d="M364.7 207.2h153.5v151.5H364.7z" style="clip-path:url(#h);fill:#49515f"/><defs><path id="i" d="M169.8 257.5c-5.7-6.8-14.2-10.8-23.2-10.8-16.4 0-29.8 13-29.8 29v40.4h13.4v-40.4c0-8.8 7.4-16 16.4-16 9.1 0 16.5 7.2 16.5 16v40.4h13.4v-40.4c0-8.8 7.4-16 16.5-16s16.5 7.2 16.5 16v40.4h13.4v-40.4c0-16-13.4-29-29.8-29-9.2.1-17.6 4-23.3 10.8"/></defs><clipPath id="j"><use xlink:href="#i" style="overflow:visible"/></clipPath><path d="M77.2 207.2h185.2v148.6H77.2z" style="clip-path:url(#j);fill:#49515f"/><defs><path id="k" d="M45.4 283.3c0-13.4 11-24.2 24.5-24.2s24.5 10.9 24.5 24.2-11 24.2-24.5 24.2-24.5-10.8-24.5-24.2m-11.7 0c0 19.7 16.2 35.7 36.2 35.7 19.9 0 36.1-16 36.1-35.7s-16.2-35.7-36.1-35.7c-20 0-36.2 16-36.2 35.7"/></defs><clipPath id="l"><use xlink:href="#k" style="overflow:visible"/></clipPath><path d="M-5.9 208h151.5v150.7H-5.9z" style="clip-path:url(#l);fill:#49515f"/><defs><path id="m" d="m198.6 200.7 12.3 12.2c13.2-17.9 35.6-29.4 58.3-29.4 22.8 0 45.1 11.5 58.4 29.4l12.2-12.2c-16.5-22.3-42.3-34.5-70.6-34.5s-54.1 12.2-70.6 34.5"/></defs><clipPath id="n"><use xlink:href="#m" style="overflow:visible"/></clipPath><path d="M159 126.6h220.4v125.9H159z" style="clip-path:url(#n);fill:#21b6c4"/><defs><path id="o" d="m222.8 227.4 12.4 12.4c8.6-10.4 21-16.7 33.8-16.7s25.2 6.6 33.8 16.9l12.6-12.5c-11.9-14.4-28.4-21.7-46.4-21.7s-34.3 7.3-46.2 21.6"/></defs><clipPath id="p"><use xlink:href="#o" style="overflow:visible"/></clipPath><path d="M183.2 166.2H355v113.4H183.2z" style="clip-path:url(#p);fill:#21b6c4"/></svg>